<svg xmlns="http://www.w3.org/2000/svg" xmlns:xlink="http://www.w3.org/1999/xlink" width="500" zoomAndPan="magnify" viewBox="0 0 375 374.999991" height="500" preserveAspectRatio="xMidYMid meet" version="1.0"><defs><g/></defs><g fill="#1f3bb3" fill-opacity="1"><g transform="translate(3.519578, 356.501913)"><g><path d="M 184.859375 -48.40625 C 202.441406 -48.40625 219.488281 -50.960938 236 -56.078125 C 252.507812 -61.203125 265.273438 -67.742188 274.296875 -75.703125 L 274.296875 -120.4375 L 195.40625 -120.4375 L 195.40625 -170.4375 L 336.21875 -170.4375 L 336.21875 -51.609375 C 319.09375 -34.023438 296.804688 -20.257812 269.359375 -10.3125 C 241.921875 -0.375 213.140625 4.59375 183.015625 4.59375 C 130.421875 4.59375 89.976562 -9.972656 61.6875 -39.109375 C 33.40625 -68.242188 19.265625 -109.570312 19.265625 -163.09375 C 19.265625 -216.3125 33.484375 -257.101562 61.921875 -285.46875 C 90.359375 -313.84375 131.257812 -328.03125 184.625 -328.03125 C 260.457031 -328.03125 308.695312 -299.96875 329.34375 -243.84375 L 266.953125 -225.03125 C 260.234375 -241.394531 249.6875 -253.78125 235.3125 -262.1875 C 220.9375 -270.601562 204.039062 -274.8125 184.625 -274.8125 C 152.820312 -274.8125 128.660156 -265.175781 112.140625 -245.90625 C 95.628906 -226.632812 87.375 -199.03125 87.375 -163.09375 C 87.375 -126.550781 95.898438 -98.300781 112.953125 -78.34375 C 130.003906 -58.382812 153.972656 -48.40625 184.859375 -48.40625 Z M 184.859375 -48.40625 "/></g></g></g></svg>